Patient4_TMGait_0pt3_01_left_08_GRF.mot
version=1
nRows=58
nColumns=19
inDegrees=no
endheader
time	F1x	F1y	F1z	M1x	M1y	M1z	F2x	F2y	F2z	M2x	M2y	M2z	EC1x	EC1y	EC1z	EC2x	EC2y	EC2z
14.51	7.1542	-4.6203	1.8861	1.4977	-1.2254	-5.8918	-21.6368	747.7598	-55.6093	241.9205	65.5587	772.7391	-0.0592	0.0182	-0.0073	-0.0462	0.0165	0.9585
14.5291	4.8196	-2.9162	1.2745	0.95542	-0.86949	-3.7732	-21.1961	750.7423	-53.3401	243.536	63.2561	772.9744	-0.0592	0.0182	-0.0073	-0.0462	0.0165	0.9585
14.5483	2.838	-1.4475	0.77427	0.4809	-0.58013	-1.9405	-20.6712	757.6972	-50.659	246.7459	60.4685	776.4154	-0.0592	0.0182	-0.0073	-0.0462	0.0165	0.9585
14.5674	1.3245	-0.30378	0.41167	0.1041	-0.37063	-0.51352	-20.0278	769.4596	-47.7334	251.8343	57.3334	783.8935	-0.0592	0.0182	-0.0073	-0.0462	0.0165	0.9585
14.5866	0.27012	0.51006	0.1822	-0.17044	-0.24124	0.5003	-19.1792	786.1289	-44.7647	258.7959	54.0136	795.5195	-0.0592	0.0182	-0.0073	-0.0462	0.0165	0.9585
14.6057	-0.39932	1.0266	0.062248	-0.34914	-0.18302	1.1454	-18.0038	806.8236	-41.959	267.2557	50.6707	810.4658	-0.0592	0.0182	-0.0073	-0.0462	0.0165	0.9585
14.6249	-0.77828	1.2845	0.022186	-0.44095	-0.18084	1.4731	-16.3723	829.4786	-39.5038	276.4103	47.4426	826.7938	-0.0592	0.0182	-0.0073	-0.0462	0.0165	0.9585
14.644	-0.95792	1.3132	0.03439	-0.45082	-0.21801	1.5231	-14.159	850.857	-37.5423	285.0508	44.4235	841.4704	-0.0592	0.0182	-0.0073	-0.0462	0.0165	0.9585
14.6631	-1.0195	1.1196	0.077278	-0.37666	-0.28198	1.3172	-11.3022	867.0229	-36.1458	291.7454	41.6604	850.8357	-0.0592	0.0182	-0.0073	-0.0462	0.0165	0.9585
14.6823	-1.0251	0.68982	0.13352	-0.20987	-0.36382	0.85497	-7.8516	874.3243	-35.2879	295.1904	39.148	851.5497	-0.0592	0.0182	-0.0073	-0.0462	0.0165	0.9585
14.7014	-1.0139	-0.0028722	0.19043	0.062633	-0.45432	0.11481	-3.9292	870.5548	-34.8406	294.6125	36.8144	841.6826	-0.0592	0.0182	-0.0073	-0.0462	0.0165	0.9585
14.7206	-1.0026	-0.98477	0.23702	0.45255	-0.539	-0.92541	0.32337	855.6933	-34.6187	290.0166	34.547	821.3938	-0.0592	0.0182	-0.0073	-0.0462	0.0165	0.9585
14.7397	-0.98406	-2.2553	0.26151	0.9587	-0.59393	-2.2618	4.76	831.9129	-34.4436	282.1777	32.2447	792.9085	-0.0592	0.0182	-0.0073	-0.0462	0.0165	0.9585
14.7589	-0.93134	-3.7494	0.24555	1.553	-0.58184	-3.8282	9.2386	802.981	-34.2051	272.4209	29.8703	759.9113	-0.0592	0.0182	-0.0073	-0.0462	0.0165	0.9585
14.778	-0.79618	-5.2841	0.16232	2.1591	-0.45348	-5.4413	13.6171	773.2989	-33.8815	262.2846	27.4691	726.6268	-0.0592	0.0182	-0.0073	-0.0462	0.0165	0.9585
14.7971	-0.50929	-6.5086	-0.017526	2.6333	-0.15264	-6.7464	17.7503	746.879	-33.5244	253.1668	25.1533	696.8572	-0.0592	0.0182	-0.0073	-0.0462	0.0165	0.9585
14.8163	0.01592	-6.8543	-0.31998	2.7428	0.3795	-7.1553	21.5034	726.552	-33.2227	246.0574	23.0618	673.249	-0.0592	0.0182	-0.0073	-0.0462	0.0165	0.9585
14.8354	0.86815	-5.4908	-0.76485	2.1501	1.1972	-5.7981	24.7695	713.5096	-33.0587	241.3857	21.3111	656.8781	-0.0592	0.0182	-0.0073	-0.0462	0.0165	0.9585
14.8546	2.1199	-1.3105	-1.3525	0.40967	2.3262	-1.5214	27.4939	707.2287	-33.0801	238.9945	19.9584	647.206	-0.0592	0.0182	-0.0073	-0.0462	0.0165	0.9585
14.8737	3.7946	7.0151	-2.0429	-3.0099	3.7305	7.0558	29.6468	705.7137	-33.3017	238.2157	19.0185	642.3462	-0.0592	0.0182	-0.0073	-0.0462	0.0165	0.9585
14.8929	5.8196	20.8696	-2.7365	-8.6572	5.2735	21.3815	31.1674	705.9787	-33.7002	238.0336	18.4812	639.5519	-0.0592	0.0182	-0.0073	-0.0462	0.0165	0.9585
14.912	7.9664	41.3775	-3.2487	-16.9673	6.6655	42.6457	31.9547	704.6482	-34.2146	237.2906	18.3196	635.7722	-0.0592	0.0182	-0.0073	-0.0462	0.0165	0.9585
14.9311	9.776	68.8867	-3.2849	-28.0509	7.408	71.2445	31.8735	698.545	-34.7556	234.8911	18.4974	628.1867	-0.0592	0.0182	-0.0073	-0.0462	0.0165	0.9585
14.9503	10.5501	102.3282	-2.4595	-41.4347	6.8126	106.1161	30.7747	685.2125	-35.2176	229.9845	18.974	614.6674	-0.0592	0.0182	-0.0073	-0.0462	0.0165	0.9585
14.9694	9.8162	138.977	-0.40981	-55.9805	4.3159	144.4586	28.5805	663.4963	-35.4891	222.1692	19.6867	594.253	-0.0592	0.0182	-0.0073	-0.0462	0.0165	0.9585
14.9886	7.8509	175.4937	2.8226	-70.3492	0.084636	182.737	25.3977	634.0429	-35.4875	211.6672	20.5402	567.5326	-0.0592	0.0182	-0.0073	-0.0462	0.0165	0.9585
15.0077	5.2351	209.4048	6.7133	-83.601	-5.0792	218.2605	21.5407	599.2315	-35.18	199.3029	21.4179	536.5595	-0.0592	0.0182	-0.0073	-0.0462	0.0165	0.9585
15.0269	2.3442	240.0381	10.705	-95.5181	-10.4239	250.2694	17.4787	562.5153	-34.5702	186.2782	22.1846	504.2624	-0.0592	0.0182	-0.0073	-0.0462	0.0165	0.9585
15.046	-0.64979	268.1998	14.4282	-106.4535	-15.4918	279.5883	13.7015	527.265	-33.6952	173.7716	22.7167	473.4506	-0.0592	0.0182	-0.0073	-0.0462	0.0165	0.9585
15.0651	-3.6617	295.0478	17.6892	-116.8783	-20.0531	307.4284	10.5639	495.7352	-32.6045	162.5806	22.9343	445.9521	-0.0592	0.0182	-0.0073	-0.0462	0.0165	0.9585
15.0843	-6.5777	321.2974	20.4468	-127.0654	-24.029	334.5519	8.2136	468.6871	-31.3686	152.9874	22.8363	422.3139	-0.0592	0.0182	-0.0073	-0.0462	0.0165	0.9585
15.1034	-9.2052	347.0429	22.7467	-137.0258	-27.4031	361.0792	6.6154	445.6392	-30.0735	144.8417	22.4877	402.0334	-0.0592	0.0182	-0.0073	-0.0462	0.0165	0.9585
15.1226	-11.3519	371.8136	24.6709	-146.5426	-30.198	386.5506	5.6143	425.4462	-28.7889	137.7617	21.9776	384.0734	-0.0592	0.0182	-0.0073	-0.0462	0.0165	0.9585
15.1417	-12.9378	394.823	26.3014	-155.2801	-32.4762	410.1803	5.0168	406.8797	-27.5533	131.3345	21.3834	367.3601	-0.0592	0.0182	-0.0073	-0.0462	0.0165	0.9585
15.1609	-13.9638	415.4513	27.665	-162.9784	-34.2686	431.341	4.6623	389.0054	-26.3758	125.2429	20.7483	351.1009	-0.0592	0.0182	-0.0073	-0.0462	0.0165	0.9585
15.18	-14.4637	433.5242	28.7372	-169.569	-35.5634	449.8516	4.4453	371.2879	-25.2347	119.2989	20.078	334.8644	-0.0592	0.0182	-0.0073	-0.0462	0.0165	0.9585
15.1991	-14.5188	449.2414	29.5142	-175.1413	-36.3809	465.8981	4.324	353.5299	-24.0993	113.4242	19.3605	318.5185	-0.0592	0.0182	-0.0073	-0.0462	0.0165	0.9585
15.2183	-14.2312	463.0247	30.0684	-179.8728	-36.8252	479.881	4.3089	335.7511	-22.9581	107.6107	18.584	302.1165	-0.0592	0.0182	-0.0073	-0.0462	0.0165	0.9585
15.2374	-13.707	475.4194	30.5449	-183.9875	-37.0784	492.3211	4.4245	318.0497	-21.8252	101.874	17.7505	285.7744	-0.0592	0.0182	-0.0073	-0.0462	0.0165	0.9585
15.2566	-13.0572	487.0113	31.1178	-187.7268	-37.3554	503.7775	4.6745	300.4607	-20.7264	96.2094	16.8782	269.5453	-0.0592	0.0182	-0.0073	-0.0462	0.0165	0.9585
15.2757	-12.383	498.3782	31.9423	-191.3318	-37.849	514.7965	5.0338	282.8836	-19.6884	90.5722	15.9957	253.3544	-0.0592	0.0182	-0.0073	-0.0462	0.0165	0.9585
15.2949	-11.7654	510.0659	33.1179	-195.0379	-38.6887	525.8967	5.4469	265.1261	-18.727	84.8912	15.1317	237.0463	-0.0592	0.0182	-0.0073	-0.0462	0.0165	0.9585
15.314	-11.2681	522.5642	34.661	-199.0651	-39.9103	537.5472	5.8348	246.9915	-17.8395	79.0939	14.309	220.4608	-0.0592	0.0182	-0.0073	-0.0462	0.0165	0.9585
15.3331	-10.9165	536.2804	36.5108	-203.5992	-41.4526	550.1379	6.1133	228.3263	-17.0093	73.1235	13.5427	203.4735	-0.0592	0.0182	-0.0073	-0.0462	0.0165	0.9585
15.3523	-10.7004	551.5123	38.5792	-208.7726	-43.2139	563.9527	6.1951	209.0401	-16.2102	66.9466	12.842	186.0156	-0.0592	0.0182	-0.0073	-0.0462	0.0165	0.9585
15.3714	-10.6036	568.4361	40.8023	-214.6563	-45.1181	579.156	5.998	189.1387	-15.4102	60.5635	12.2097	168.1014	-0.0592	0.0182	-0.0073	-0.0462	0.0165	0.9585
15.3906	-10.616	587.1718	43.15	-221.2853	-47.1283	595.8679	5.4676	168.7596	-14.5748	54.0179	11.6372	149.8538	-0.0592	0.0182	-0.0073	-0.0462	0.0165	0.9585
15.4097	-10.7523	607.8549	45.614	-228.6875	-49.2395	614.239	4.5878	148.1694	-13.6723	47.3953	11.1047	131.4976	-0.0592	0.0182	-0.0073	-0.0462	0.0165	0.9585
15.4289	-11.056	630.6254	48.2015	-236.8842	-51.4742	634.4308	3.3871	127.7003	-12.6752	40.8032	10.5786	113.3091	-0.0592	0.0182	-0.0073	-0.0462	0.0165	0.9585
15.448	-11.5644	655.5465	50.9296	-245.8664	-53.866	656.5257	1.939	107.6971	-11.5589	34.3561	10.0143	95.5701	-0.0592	0.0182	-0.0073	-0.0462	0.0165	0.9585
15.4671	-12.2844	682.4934	53.8025	-255.566	-56.4285	680.4085	0.3577	88.5091	-10.3022	28.1737	9.3606	78.5716	-0.0592	0.0182	-0.0073	-0.0462	0.0165	0.9585
15.4863	-13.1668	711.095	56.7672	-265.8473	-59.1001	705.6921	-1.2037	70.5044	-8.8976	22.3837	8.5678	62.6297	-0.0592	0.0182	-0.0073	-0.0462	0.0165	0.9585
15.5054	-14.0757	740.746	59.6863	-276.5158	-61.7058	731.713	-2.5637	54.0553	-7.3697	17.1139	7.6033	48.0698	-0.0592	0.0182	-0.0073	-0.0462	0.0165	0.9585
15.5246	-14.8085	770.5901	62.3583	-287.3027	-63.9807	757.5206	-3.5335	39.498	-5.7837	12.4734	6.4657	35.1923	-0.0592	0.0182	-0.0073	-0.0462	0.0165	0.9585
15.5437	-15.1428	799.4589	64.5724	-297.8258	-65.6397	781.8528	-3.9692	27.1245	-4.2362	8.5509	5.194	24.2602	-0.0592	0.0182	-0.0073	-0.0462	0.0165	0.9585
15.5629	-14.8468	825.8087	66.1539	-307.5531	-66.431	803.1149	-3.8266	17.1695	-2.8362	5.4141	3.875	15.4779	-0.0592	0.0182	-0.0073	-0.0462	0.0165	0.9585
15.582	-13.7018	847.703	66.9869	-315.783	-66.1704	819.4018	-3.2601	9.7563	-1.6837	3.0934	2.6506	8.9506	-0.0592	0.0182	-0.0073	-0.0462	0.0165	0.9585
15.6011	-11.5515	862.9282	67.0304	-321.6796	-64.7758	828.6404	-2.5403	4.7551	-0.83264	1.5402	1.6552	4.5673	-0.0592	0.0182	-0.0073	-0.0462	0.0165	0.9585
